PathFileType	4	(X/Y/Z)	C:/Users/beibeiliu/ov580/test_trc\sequence.25_training_dense_left.trc
DataRate	CameraRate	NumFrames	NumMarkers	Units	OrigDataRate	OrigDataStartFrame	OrigNumFrames
120	120	23	19	mm	120	263	300
Frame#	Time	ThumbCMC			ThumbMCP			ThumbIP			ThumbTip			IndexMCP			IndexPIP			IndexTip			MiddleMCP			MiddlePIP			MiddleTip			RingMCP			RingPIP			RingTip			PinkyMCP			PinkyPIP			PinkyTip			BackHand1			BackHand2			BackHand3	
		X0	Y0	Z0	X1	Y1	Z1	X2	Y2	Z2	X3	Y3	Z3	X4	Y4	Z4	X5	Y5	Z5	X6	Y6	Z6	X7	Y7	Z7	X8	Y8	Z8	X9	Y9	Z9	X10	Y10	Z10	X11	Y11	Z11	X12	Y12	Z12	X13	Y13	Z13	X14	Y14	Z14	X15	Y15	Z15	X16	Y16	Z16	X17	Y17	Z17	X18	Y18	Z18	
262	2.18333	-162.686	15.4837	25.2544	-154.023	0.192551	0.99322	-150.313	-8.57696	-17.5064	-151.65	-17.2524	-44.1902	-161.522	16.6564	-45.3517	-155.189	6.84276	-66.6801	-157.923	-1.21724	-88.7373	-180.551	19.0923	-49.3242	-178.332	11.5908	-72.3594	-180.513	4.72164	-97.0285	-202.086	16.7928	-46.369	-203.1	2.66754	-67.584	-199.669	-11.6539	-80.9262	-220.789	15.6684	-37.1593	-220.85	-3.0721	-51.2129	-216.498	-17.8379	-59.5865	-198.569	39.8688	-1.86693	-203.526	47.3623	23.7641	-177.713	39.8504	11.4598	
263	2.19167	-161.231	16.0353	26.2456	-150.218	0.87083	0.918589	-147.895	-6.78238	-20.668	-148.174	-13.6637	-39.592	-160.693	15.6226	-44.4969	-158.744	6.76433	-66.8116	-156.006	-1.69172	-85.0401	-183.306	19.0697	-49.6244	-182.643	11.263	-74.3602	-182.134	3.83379	-99.9066	-201.168	18.6675	-45.1892	-206.115	8.98337	-64.9677	-201.792	-3.74548	-84.0134	-221.301	15.9893	-33.6356	-221.424	1.24715	-52.0751	-221.854	-13.2118	-65.9288	-205.027	37.9044	-3.55049	-205.943	45.4621	23.6651	-175.901	39.4262	8.02159	
264	2.2	-167.531	18.4748	25.362	-154.155	3.5332	6.09567	-146.768	-3.63403	-21.2393	-143.213	-11.1371	-35.6374	-167.219	16.6939	-45.1856	-159.995	7.89019	-61.9688	-158.93	-0.820941	-83.5943	-188.888	18.353	-53.8915	-183.675	10.3155	-72.9904	-182.64	3.57112	-96.7825	-207.639	19.3264	-43.574	-205.949	10.5619	-66.6556	-205.101	1.35231	-84.921	-226.725	15.63	-35.7743	-227.317	7.4611	-50.3679	-225.417	-4.60838	-65.2967	-205.033	36.1664	-2.74449	-208.178	43.637	20.8462	-181.742	42.0743	10.6184	
265	2.20833	-166.14	19.4882	21.3838	-156.443	6.25249	5.04816	-145.369	-0.0416413	-15.7953	-141.881	-5.97614	-34.2966	-169.969	17.3124	-41.6918	-163.495	6.6169	-66.517	-162.077	-1.38102	-83.4175	-189.059	18.9674	-49.9403	-190.132	11.6226	-70.6498	-187.447	4.71386	-96.6956	-208.129	18.9792	-46.1564	-213.098	12.6265	-66.4883	-210.527	6.50633	-84.239	-228.898	17.3214	-32.3803	-230.907	8.17642	-53.372	-231.839	-0.239986	-69.8275	-210.118	37.8607	-1.39906	-211.064	44.7288	19.6181	-182.132	41.9085	9.50153	
266	2.21667	-167.856	19.9999	22.3902	-156.889	8.99751	3.68977	-145.983	3.37849	-14.9655	-139.369	-2.07607	-33.2173	-171.493	17.363	-42.0916	-164.245	8.70611	-61.8253	-160.758	-0.914203	-81.9497	-193.672	19.1757	-50.4744	-190.362	11.7719	-71.8636	-188.738	5.62194	-99.0052	-210.207	20.1052	-43.6512	-213.84	14.2514	-64.3586	-215.023	10.091	-89.1012	-229.831	17.5031	-33.6181	-235.344	12.1875	-51.8616	-234.268	6.66048	-69.475	-210.269	36.941	-4.1047	-215.549	42.1382	22.4083	-185.313	40.704	11.1874	
267	2.225	-169.157	19.6992	25.4283	-153.249	10.1171	6.2011	-147.08	4.26946	-11.4269	-134.328	-0.0231085	-29.7253	-170.032	17.0851	-40.5209	-164.178	6.09027	-64.0064	-163.024	-2.82652	-85.5651	-191.765	17.3485	-52.0969	-190.176	11.2179	-69.4871	-186.752	5.86171	-95.6746	-214.667	19.478	-40.9915	-213.823	14.9951	-65.7788	-215.377	12.1763	-83.3769	-229.319	17.4021	-30.2994	-234.898	13.6575	-48.4901	-238.119	11.4241	-66.3638	-215.84	35.446	-1.80946	-217.199	40.8707	25.3054	-188.584	38.8078	12.8613	
268	2.23333	-169.418	19.737	29.265	-156.828	10.8061	8.61345	-141.991	7.43877	-12.2573	-134.289	2.25159	-24.2232	-166.737	13.795	-42.0823	-164.207	7.09743	-58.4127	-160.976	-3.64952	-83.8897	-193.187	16.5382	-49.5539	-191.242	9.54441	-72.6011	-188.005	5.48645	-91.3303	-215.369	17.7782	-41.3182	-213.224	14.1239	-62.4372	-214.564	11.491	-80.3399	-234.823	16.6558	-28.7076	-234.888	13.7576	-46.0704	-239.222	10.8696	-67.1138	-215.342	34.3808	0.173866	-215.678	40.3579	27.4613	-190.273	38.5147	10.521	
269	2.24167	-167.804	18.4582	33.0658	-151.984	10.9385	10.8239	-142.947	7.70752	-7.30651	-129.303	4.20875	-24.9249	-168.879	12.7831	-37.3345	-165.495	4.76757	-58.7898	-158.574	-5.27211	-79.1105	-194.79	15.3197	-45.0368	-191.655	8.75603	-66.1049	-189.406	3.50315	-90.3418	-210.627	16.7429	-42.2421	-213.043	13.7378	-64.3015	-217.282	12.3369	-84.8467	-232.594	15.1625	-25.1511	-236.602	12.6777	-44.1298	-241.305	12.7849	-60.5326	-214.11	30.4286	2.89657	-212.659	40.0568	26.7588	-186.418	35.5362	16.8583	
270	2.25	-173.215	16.6039	31.9767	-152.174	10.1742	11.5772	-140.395	7.55412	-6.44389	-128.812	4.82541	-18.5002	-168.553	11.5058	-38.1428	-166.816	2.27485	-58.1855	-159.621	-6.57425	-77.2757	-190.268	12.3637	-47.8782	-190.59	6.69392	-65.7627	-187.504	-0.48182	-93.2331	-211.127	14.8521	-39.8238	-216.185	12.3816	-58.7387	-213.901	10.7358	-84.2288	-232.058	12.841	-23.6861	-233.871	11.1851	-40.7231	-243.693	14.3635	-61.9378	-214.037	28.9124	2.67176	-215.023	35.5968	27.6477	-188.652	35.601	15.7844	
271	2.25833	-170.313	16.5989	32.1461	-150.393	10.4471	12.9157	-138.634	7.94941	-3.95608	-130.112	5.61335	-18.832	-165.657	9.13197	-39.0426	-161.239	-0.635516	-57.3248	-158.474	-9.81911	-79.8703	-191.317	10.0078	-48.0895	-185.95	4.62946	-64.2629	-185.206	-1.10203	-87.8762	-210.592	11.9368	-37.0811	-210.937	9.4729	-60.7206	-215.135	7.78909	-80.5178	-230.024	10.2939	-25.4304	-238.586	9.72136	-44.4054	-243.78	10.8571	-62.7349	-214.609	27.0191	0.197794	-213.631	35.6912	27.6268	-188.274	31.427	14.6755	
272	2.26667	-168.908	15.4736	35.5452	-154.326	9.6606	16.7913	-137.602	9.0036	-5.97581	-127.661	6.44214	-13.0656	-169.473	8.62217	-36.4986	-161.506	-0.908643	-53.7552	-158.949	-9.79216	-75.2896	-190.392	9.03041	-46.851	-188.489	1.0748	-68.5569	-183.345	-3.48861	-87.7596	-209.758	9.99557	-40.292	-209.786	7.70554	-57.42	-210.942	5.43782	-80.3947	-230.921	9.29449	-22.2641	-237.691	8.08026	-41.2907	-244.455	9.41525	-56.1686	-214.536	26.8256	4.94733	-212.35	35.1801	29.7248	-187.019	30.6298	17.7735	
273	2.275	-167.936	16.2281	33.7151	-152.826	9.51451	18.602	-140.147	8.73152	-3.39286	-126.704	7.27924	-13.4504	-163.61	8.16041	-32.4802	-157.665	-2.25157	-53.222	-152.158	-11.9842	-74.7994	-187.95	8.03111	-43.1133	-188.217	1.76468	-63.6603	-181.817	-4.12816	-87.6269	-211.608	9.45197	-39.8709	-208.65	6.3623	-56.8942	-210.981	3.99483	-81.9348	-228.576	7.72849	-21.878	-238.727	6.7707	-40.8506	-240.756	11.1922	-55.5095	-212.422	26.0628	5.4526	-212.57	33.3202	29.8809	-189.053	29.7601	16.8837	
274	2.28333	-169.68	14.3766	34.8931	-149.108	10.3937	19.6415	-134.721	10.241	-1.49293	-123.118	8.36081	-11.9651	-166.935	6.14886	-34.4785	-159.908	-3.08316	-53.616	-154.143	-13.2931	-75.9867	-186.683	7.64722	-43.5459	-181.849	0.243688	-64.5659	-180.958	-5.16868	-86.7561	-211.09	7.79799	-38.1857	-211.11	4.78437	-57.2159	-211.413	2.10578	-78.8723	-231.38	6.47531	-23.2908	-237.682	4.61483	-39.0974	-243.343	9.94777	-56.6894	-208.339	22.9107	4.23277	-210.467	30.9632	26.1299	-186.935	30.5976	19.4285	
275	2.29167	-165.839	15.4615	35.4113	-148.735	11.0147	19.634	-135.127	11.5142	-1.12074	-121.202	11.0864	-15.2305	-162.595	6.76499	-33.4892	-155.775	-4.65649	-55.7126	-152.078	-12.9541	-75.1117	-186.654	4.98247	-44.5365	-180.729	-1.88553	-65.5677	-184.955	-7.92382	-88.3866	-206.652	7.57045	-35.2727	-209.84	4.01584	-57.9349	-208.534	1.74305	-81.6804	-226.668	5.76906	-22.3618	-233.513	4.14592	-39.6627	-241.505	6.12505	-58.6409	-211.618	21.3552	4.25657	-213.529	31.5991	26.0779	-184.77	28.608	16.8951	
276	2.3	-169.958	14.7487	36.7764	-149.388	11.9088	19.0125	-138.445	11.0729	1.26682	-123.896	12.3916	-12.7394	-161.183	4.85721	-35.9485	-158.103	-2.41026	-50.9294	-153.032	-12.9747	-71.1958	-185.549	5.27591	-44.5604	-181.912	-2.00428	-63.6318	-181.246	-6.95771	-89.3766	-209.683	5.92347	-35.9437	-210.641	2.86594	-55.9551	-207.672	0.851905	-77.1798	-228.895	4.9068	-25.3107	-235.134	3.26446	-37.3673	-241.188	4.85273	-57.5248	-209.393	23.1583	4.26654	-212.11	30.1488	26.6451	-184.641	30.3775	18.1644	
277	2.30833	-167.707	14.4945	38.8598	-151.541	11.3276	18.9005	-137.892	10.8211	0.405918	-123.186	11.8052	-10.9387	-161.851	3.97561	-35.7339	-155.22	-4.92538	-53.4857	-149.531	-14.3228	-74.3113	-186.511	4.94621	-41.4438	-183.27	-2.02408	-60.7874	-181.376	-7.92202	-89.4643	-205.85	6.17865	-36.4403	-210.55	2.11264	-54.635	-204.74	-0.648749	-78.2641	-227.358	3.39937	-22.6982	-229.698	1.61636	-41.5328	-240.257	4.37307	-57.0566	-212.348	20.6237	5.04064	-211.881	29.2082	29.2467	-186.883	27.0435	15.9391	
278	2.31667	-166.89	15.5261	39.0245	-146.527	13.1852	20.093	-134.688	13.3644	0.648294	-119.753	13.6475	-10.4533	-160.261	5.3568	-35.1777	-155.855	-4.91943	-53.6227	-149.861	-12.6001	-73.2796	-182.965	5.58299	-41.809	-181.9	-1.75527	-62.9948	-181.123	-7.85888	-87.111	-208.508	5.34801	-35.2355	-209.388	1.16635	-56.9811	-207.502	-0.194279	-75.9962	-229.532	2.89163	-20.7391	-229.392	0.827988	-42.608	-234.78	1.55517	-57.0783	-212.948	19.9186	5.30153	-211.646	31.0109	30.1741	-184.456	27.8526	16.3062	
279	2.325	-165.877	16.4376	36.7337	-151.376	11.2683	18.5356	-132.893	13.0473	-0.374305	-120.759	12.5958	-10.7979	-162.378	5.70802	-36.2012	-154.696	-3.45652	-52.134	-151.114	-12.8425	-74.9398	-185.799	4.62291	-44.2796	-182.857	-1.99122	-64.0234	-181.846	-6.39721	-87.5795	-208.535	5.35666	-37.1763	-209.157	1.58418	-58.4685	-206.125	-0.677767	-77.8727	-228.601	2.0607	-22.1836	-232.117	0.971912	-36.8319	-239.291	0.236796	-55.3713	-207.562	21.3315	3.12031	-214.832	31.0122	27.8986	-186.658	31.0887	19.3086	
280	2.33333	-166.13	16.6502	37.7251	-148.72	12.4969	17.9012	-139.01	12.1701	-2.43294	-122.404	11.9422	-9.8401	-164.042	6.98745	-33.9971	-160.803	-1.98491	-52.6342	-153.105	-10.3636	-71.3373	-182.802	6.02381	-42.4778	-182.992	-0.794233	-60.4238	-178.161	-5.79925	-87.4042	-208.214	6.79681	-34.0321	-206.212	2.30975	-59.6462	-209.076	-0.100728	-79.4463	-227.966	3.36383	-22.3814	-232.893	0.639113	-40.1319	-237.928	0.822258	-57.4138	-210.206	22.7042	4.13173	-216.306	31.2811	31.0327	-188.913	30.3906	19.3911	
281	2.34167	-169.077	16.2648	34.345	-147.395	14.1972	16.2412	-137.659	12.1286	0.0963812	-125.744	12.6315	-14.3823	-164.818	7.27828	-34.0364	-156.395	-1.87401	-55.3177	-151.352	-11.0391	-74.3784	-183.526	6.48121	-45.2553	-181.639	-1.76501	-65.3454	-182.228	-6.46783	-86.8752	-206.146	6.37928	-38.8182	-208.841	2.2525	-57.557	-203.938	-0.118992	-80.5749	-229.781	2.80007	-20.6405	-230.083	0.694836	-43.1217	-238.633	0.0167997	-60.9502	-209.446	21.4137	3.20278	-214.684	30.5912	29.1481	-188.268	29.5747	17.7452	
282	2.35	-164.609	17.5429	32.4388	-150.105	12.2461	18.3976	-135.196	12.7599	1.15217	-121.381	12.8321	-14.3824	-161.589	6.90687	-37.235	-155.668	-2.22054	-52.9646	-151.216	-11.901	-76.5063	-186.717	5.1934	-45.8604	-179.803	-0.384741	-64.3083	-180.753	-5.48645	-85.7223	-204.62	6.45072	-39.5065	-204.906	1.8905	-59.4535	-208.482	-0.811608	-81.9829	-226.434	3.34597	-25.8306	-233.122	0.254789	-43.3325	-236.969	0.299827	-60.6297	-208.385	24.2656	2.34688	-216.276	29.3484	28.1275	-184.321	31.764	16.5508	
283	2.35833	-167.631	16.589	33.624	-148.573	13.1149	14.039	-136.551	12.1306	-2.30352	-121.901	12.3699	-13.1877	-162.406	7.76833	-34.2833	-157.341	-1.49428	-52.1313	-152.687	-11.1223	-75.9693	-183.557	5.85093	-45.2323	-182.778	-0.796739	-63.2379	-181.429	-4.46896	-86.6036	-208.201	5.9205	-37.9849	-208.088	1.21964	-59.5649	-206.792	-1.6781	-80.2043	-227.851	2.2228	-25.362	-233.548	-0.88897	-40.3281	-236.524	2.07111	-58.0012	-212.757	23.7369	3.92777	-210.213	30.4963	28.8516	-183.631	31.4916	15.7582	
284	2.36667	-168.582	15.1644	34.4117	-148.839	11.544	17.8847	-135.224	12.0747	-0.583099	-124.797	11.4447	-17.2483	-164.7	8.23746	-33.203	-158.699	-3.25264	-57.9725	-150.782	-10.8569	-76.3122	-184.614	6.79785	-42.3621	-181.291	0.145752	-61.5752	-178.501	-4.01756	-86.7306	-204.995	5.21929	-38.1982	-205.74	1.69042	-57.6764	-203.411	-1.33337	-78.7304	-224.253	3.1252	-27.1141	-229.567	0.0835162	-39.6279	-237.853	-0.592566	-62.1512	-208.168	22.0137	2.5866	-216.004	31.5818	30.0226	-182.913	30.3863	17.4861	
